<svg xmlns="http://www.w3.org/2000/svg" viewBox="0 0 1600 1000" width="1600" height="1000" preserveAspectRatio="xMidYMid slice"><defs><linearGradient id="s2" x1="0" y1="0" x2="0" y2="1"><stop offset="0" stop-color="#cfe0e6"/><stop offset="1" stop-color="#a9c6cf"/></linearGradient></defs><rect width="1600" height="1000" fill="url(#s2)"/><rect y="600" width="1600" height="400" fill="#efece4"/><rect x="120" y="560" width="1360" height="360" rx="10" fill="#8fbcc4"/><rect x="120" y="560" width="1360" height="30" fill="#a9cdd4"/><rect x="240" y="640" width="150" height="34" rx="8" fill="#e4dfd3"/><rect x="420" y="640" width="150" height="34" rx="8" fill="#e4dfd3"/><g transform="translate(1360,240) scale(1.4)" fill="#586b5a"><rect x="-3" y="0" width="6" height="150"/><path d="M0 0 q-55 -26 -100 -8 q55 -6 100 18 q55 -30 108 -12 q-52 -2 -108 2z"/><path d="M0 4 q-60 6 -92 44 q60 -30 92 -20 q34 -34 92 -22 q-56 4 -92 18z"/></g><g transform="translate(150,300) scale(1.0)" fill="#586b5a"><rect x="-3" y="0" width="6" height="150"/><path d="M0 0 q-55 -26 -100 -8 q55 -6 100 18 q55 -30 108 -12 q-52 -2 -108 2z"/><path d="M0 4 q-60 6 -92 44 q60 -30 92 -20 q34 -34 92 -22 q-56 4 -92 18z"/></g><rect x="1180" y="360" width="240" height="220" fill="#efece4"/></svg>